<svg xmlns="http://www.w3.org/2000/svg" viewBox="0 0 143 231"><defs><style>.cls-1{fill:#fff;stroke-width:2px;}.cls-1,.cls-3{stroke:#445265;stroke-miterlimit:10;}.cls-2{fill:#445265;}.cls-3{fill:none;stroke-width:1.5px;}</style></defs><title>Complete package illustration</title><g id="Layer_5" data-name="Layer 5"><rect class="cls-1" x="10.93" y="16.95" width="122.19" height="199.55" rx="9.28" ry="9.28"/><ellipse class="cls-2" cx="70.32" cy="62.49" rx="1.45" ry="1.53"/><ellipse class="cls-2" cx="70.32" cy="67.76" rx="1.45" ry="1.53"/><ellipse class="cls-2" cx="70.32" cy="73.04" rx="1.45" ry="1.53"/><ellipse class="cls-2" cx="70.32" cy="78.31" rx="1.45" ry="1.53"/><ellipse class="cls-2" cx="70.32" cy="83.58" rx="1.45" ry="1.53"/><ellipse class="cls-2" cx="70.32" cy="88.86" rx="1.45" ry="1.53"/><ellipse class="cls-2" cx="70.32" cy="94.13" rx="1.45" ry="1.53"/><ellipse class="cls-2" cx="70.32" cy="99.41" rx="1.45" ry="1.53"/><ellipse class="cls-2" cx="70.32" cy="104.68" rx="1.45" ry="1.53"/><ellipse class="cls-2" cx="70.32" cy="109.96" rx="1.45" ry="1.53"/><ellipse class="cls-2" cx="70.32" cy="115.23" rx="1.45" ry="1.53"/><ellipse class="cls-2" cx="70.32" cy="120.51" rx="1.45" ry="1.53"/><ellipse class="cls-2" cx="70.32" cy="125.78" rx="1.45" ry="1.53"/><ellipse class="cls-2" cx="70.32" cy="131.06" rx="1.45" ry="1.53"/><ellipse class="cls-2" cx="70.32" cy="136.33" rx="1.45" ry="1.53"/><ellipse class="cls-2" cx="70.32" cy="141.6" rx="1.45" ry="1.53"/><ellipse class="cls-2" cx="70.32" cy="146.88" rx="1.45" ry="1.53"/><ellipse class="cls-2" cx="70.32" cy="152.15" rx="1.45" ry="1.53"/><ellipse class="cls-2" cx="70.32" cy="157.43" rx="1.45" ry="1.53"/><ellipse class="cls-2" cx="70.32" cy="162.7" rx="1.45" ry="1.53"/><ellipse class="cls-2" cx="70.32" cy="167.98" rx="1.45" ry="1.53"/><ellipse class="cls-2" cx="70.32" cy="173.25" rx="1.45" ry="1.53"/><ellipse class="cls-2" cx="70.32" cy="178.53" rx="1.45" ry="1.53"/><ellipse class="cls-2" cx="70.32" cy="183.8" rx="1.45" ry="1.53"/><path class="cls-3" d="M58.77,162.88c-5.53-5.18-8-11.66-6.07-16.18.34-.8,1.76-4.19,5.08-5.26a5.35,5.35,0,0,1,3.91-.13c2,.87,2.6,3.12,2.82,3.91.55,2,.29,3.93-1.26,8.07A67.07,67.07,0,0,1,58.77,162.88Z"/><path class="cls-3" d="M91.79,77.68c-1.95-.09-7.47-.06-11.91,3.82-1,.88-6.07,5.3-4.5,9.44a6.5,6.5,0,0,0,6.74,3.82c.6-.1,2.46-.53,5.17-4.72A30.28,30.28,0,0,0,91.79,77.68Z"/><path class="cls-3" d="M53.81,58.22c-1.51,5.5-.42,10.62,2.44,12.62a7,7,0,0,0,5.11,1.24,5.59,5.59,0,0,0,2.44-1.24,6.53,6.53,0,0,0,0-9.56C61.31,59.05,53.81,58.22,53.81,58.22Z"/><path class="cls-3" d="M90.61,53.57c-1.67.12-8.34.74-11.8,4.55a5.59,5.59,0,0,0-1.7,3.46,5,5,0,0,0,1.7,4c2.36,2,6.65,1.09,9.1-.84C90.87,62.37,92,57.94,90.61,53.57Z"/><path class="cls-3" d="M69.37,37.56c-.71.69-6,6-4.62,12.2.57,2.67,2.57,6.53,5.13,6.51s4.61-4,5.06-6.91C75.91,43,70,38.08,69.37,37.56Z"/><path class="cls-3" d="M100.73,113a11,11,0,0,1-3.23,8.52c-.75.72-4.48,4.34-8,3.21-2.1-.67-3.61-2.9-3.23-4.82.08-.43.45-1.76,4-3.7A28.5,28.5,0,0,1,100.73,113Z"/><path class="cls-3" d="M113.91,130.94c-2.7-5.09-7.19-7.86-10.88-7a8.62,8.62,0,0,0-4.94,3.19A6.61,6.61,0,0,0,97,129.95a6.07,6.07,0,0,0,6.77,6.77C107.37,136.31,113.91,130.94,113.91,130.94Z"/><path class="cls-3" d="M49.08,92.66c0,.68-.23,10.49,6.32,14.25.48.28,5.61,3.14,9,.83a5.59,5.59,0,0,0,2-2.61c1.3-3.38-1.15-6.66-1.34-6.91-.44-.57-1.63-1.95-7.89-3.77A64.86,64.86,0,0,0,49.08,92.66Z"/><path class="cls-3" d="M40.65,110.77s-1,9,8.08,9.87,12.73,1.35,12.9-3-5.42-8.16-9.57-8.25S40.65,110.77,40.65,110.77Z"/><path class="cls-3" d="M79.4,107.19c1-5.47,6-6.55,9.69-5.74a75.62,75.62,0,0,1,10.22,3.68s-4.13,6.46-10.94,5.83S79.4,107.19,79.4,107.19Z"/><path class="cls-3" d="M51.13,131.76s-6.42-1.79-10.51,3.59a20.38,20.38,0,0,0-4.28,10.58,11.23,11.23,0,0,0,7-.45,11.73,11.73,0,0,0,4.2-3,13.48,13.48,0,0,0,3.34-6.28A13.63,13.63,0,0,0,51.13,131.76Z"/><path class="cls-3" d="M91.79,138s1.87-8.43-4.14-10.58-8-2.24-9.15,0a6.51,6.51,0,0,0,2,8.43C83.79,138.13,91.79,138,91.79,138Z"/><path class="cls-3" d="M76,141.1s-5,4.74,0,9.13,13.37,5.38,13.37,5.38A32.67,32.67,0,0,0,86.24,144c-1.16-2.38-2-3.39-3.26-3.95C80,138.65,76.62,140.71,76,141.1Z"/><path class="cls-3" d="M92.06,140.34c-1.67,1.45-1.09,4.81.09,6.91a7.14,7.14,0,0,0,3,2.81c6,3.14,10.26,1.93,10.26,1.93a9,9,0,0,0-.74-6.94c-.83-1.34-2.08-2.07-4-3.25A11.9,11.9,0,0,0,96.9,140C95.53,139.7,93.37,139.21,92.06,140.34Z"/><path class="cls-3" d="M65.18,123.79a9,9,0,0,0-4.07-.54c-.5.05-3.91.45-5.75,3-2.75,3.73-.83,10.56-.83,10.56h0a9,9,0,0,0,9.08-1.23C66.78,132.86,67.59,127.85,65.18,123.79Z"/><path class="cls-3" d="M75.44,108s-4.43,8.73.24,11.76,7.69,2.79,7.69,2.79c0-.82-.12-2-.21-3.53-.23-4-.24-4.21-.28-4.48C82.63,112.89,81.22,110.5,75.44,108Z"/><path class="cls-3" d="M49.1,76c1.86-.31,7.17-.95,11.84,1.79,1.06.62,6.38,3.73,5.3,7.4-.65,2.2-3.44,4.08-6.08,4-.58,0-2.41-.15-5.46-3.35A23.8,23.8,0,0,1,49.1,76Z"/></g></svg>