<svg xmlns="http://www.w3.org/2000/svg" viewBox="0 0 517.27 428.45"><defs><style>.cls-1,.cls-6{fill:#fff;}.cls-1,.cls-3,.cls-4,.cls-5,.cls-6{stroke:#445265;stroke-miterlimit:10;}.cls-1,.cls-4{stroke-width:2px;}.cls-2{fill:#445265;}.cls-3,.cls-4,.cls-5{fill:none;}.cls-3{stroke-width:1.5px;}.cls-6{stroke-width:2.06px;}</style></defs><title>Complete package illustration</title><g id="Layer_5" data-name="Layer 5"><rect class="cls-1" x="464.06" y="318.24" width="53.21" height="110.2" rx="6" ry="6"/><rect class="cls-1" x="102.8" y="226.44" width="122.19" height="199.55" rx="9.28" ry="9.28"/><ellipse class="cls-2" cx="162.18" cy="271.98" rx="1.45" ry="1.53"/><ellipse class="cls-2" cx="162.18" cy="277.25" rx="1.45" ry="1.53"/><ellipse class="cls-2" cx="162.18" cy="282.52" rx="1.45" ry="1.53"/><ellipse class="cls-2" cx="162.18" cy="287.8" rx="1.45" ry="1.53"/><ellipse class="cls-2" cx="162.18" cy="293.07" rx="1.45" ry="1.53"/><ellipse class="cls-2" cx="162.18" cy="298.35" rx="1.45" ry="1.53"/><ellipse class="cls-2" cx="162.18" cy="303.62" rx="1.45" ry="1.53"/><ellipse class="cls-2" cx="162.18" cy="308.9" rx="1.45" ry="1.53"/><ellipse class="cls-2" cx="162.18" cy="314.17" rx="1.45" ry="1.53"/><ellipse class="cls-2" cx="162.18" cy="319.45" rx="1.45" ry="1.53"/><ellipse class="cls-2" cx="162.18" cy="324.72" rx="1.45" ry="1.53"/><ellipse class="cls-2" cx="162.18" cy="330" rx="1.45" ry="1.53"/><ellipse class="cls-2" cx="162.18" cy="335.27" rx="1.45" ry="1.53"/><ellipse class="cls-2" cx="162.18" cy="340.54" rx="1.45" ry="1.53"/><ellipse class="cls-2" cx="162.18" cy="345.82" rx="1.45" ry="1.53"/><ellipse class="cls-2" cx="162.18" cy="351.09" rx="1.45" ry="1.53"/><ellipse class="cls-2" cx="162.18" cy="356.37" rx="1.45" ry="1.53"/><ellipse class="cls-2" cx="162.18" cy="361.64" rx="1.45" ry="1.53"/><ellipse class="cls-2" cx="162.18" cy="366.92" rx="1.45" ry="1.53"/><ellipse class="cls-2" cx="162.18" cy="372.19" rx="1.45" ry="1.53"/><ellipse class="cls-2" cx="162.18" cy="377.47" rx="1.45" ry="1.53"/><ellipse class="cls-2" cx="162.18" cy="382.74" rx="1.45" ry="1.53"/><ellipse class="cls-2" cx="162.18" cy="388.02" rx="1.45" ry="1.53"/><ellipse class="cls-2" cx="162.18" cy="393.29" rx="1.45" ry="1.53"/><path class="cls-3" d="M150.63,372.37c-5.53-5.18-8-11.66-6.07-16.18.34-.8,1.76-4.19,5.08-5.26a5.35,5.35,0,0,1,3.91-.13c2,.87,2.6,3.12,2.82,3.91.55,2,.29,3.93-1.26,8.07A67.07,67.07,0,0,1,150.63,372.37Z"/><path class="cls-3" d="M183.65,287.17c-1.95-.09-7.47-.06-11.91,3.82-1,.88-6.07,5.3-4.5,9.44a6.5,6.5,0,0,0,6.74,3.82c.6-.1,2.46-.53,5.17-4.72A30.28,30.28,0,0,0,183.65,287.17Z"/><path class="cls-3" d="M145.68,267.71c-1.51,5.5-.42,10.62,2.44,12.62a7,7,0,0,0,5.11,1.24,5.59,5.59,0,0,0,2.44-1.24,6.53,6.53,0,0,0,0-9.56C153.17,268.54,145.68,267.71,145.68,267.71Z"/><path class="cls-3" d="M182.47,263.06c-1.67.12-8.34.74-11.8,4.55a5.59,5.59,0,0,0-1.7,3.46,5,5,0,0,0,1.7,4c2.36,2,6.65,1.09,9.1-.84C182.73,271.85,183.82,267.43,182.47,263.06Z"/><path class="cls-3" d="M161.24,247.05c-.71.69-6,6-4.62,12.2.57,2.67,2.57,6.53,5.13,6.51s4.61-4,5.06-6.91C167.78,252.52,161.87,247.57,161.24,247.05Z"/><path class="cls-3" d="M192.59,322.5a11,11,0,0,1-3.23,8.52c-.75.72-4.48,4.34-8,3.21-2.1-.67-3.61-2.9-3.23-4.82.09-.43.45-1.76,4-3.7A28.5,28.5,0,0,1,192.59,322.5Z"/><path class="cls-3" d="M205.78,340.43c-2.7-5.09-7.19-7.86-10.88-7a8.62,8.62,0,0,0-4.94,3.19,6.61,6.61,0,0,0-1.07,2.82,6.07,6.07,0,0,0,6.77,6.77C199.23,345.8,205.78,340.43,205.78,340.43Z"/><path class="cls-3" d="M140.94,302.14c0,.68-.23,10.49,6.32,14.25.48.28,5.61,3.14,9,.83a5.59,5.59,0,0,0,2-2.61c1.3-3.38-1.15-6.66-1.34-6.91-.44-.57-1.63-1.95-7.89-3.77A64.86,64.86,0,0,0,140.94,302.14Z"/><path class="cls-3" d="M132.51,320.26s-1,9,8.08,9.87,12.73,1.35,12.9-3-5.42-8.16-9.57-8.25S132.51,320.26,132.51,320.26Z"/><path class="cls-3" d="M171.26,316.67c1-5.47,6-6.55,9.69-5.74a75.62,75.62,0,0,1,10.22,3.68s-4.13,6.46-10.94,5.83S171.26,316.67,171.26,316.67Z"/><path class="cls-3" d="M143,341.25s-6.42-1.79-10.51,3.59a20.38,20.38,0,0,0-4.28,10.58,11.23,11.23,0,0,0,7-.45,11.73,11.73,0,0,0,4.2-3,13.48,13.48,0,0,0,3.34-6.28A13.63,13.63,0,0,0,143,341.25Z"/><path class="cls-3" d="M183.65,347.53s1.87-8.43-4.14-10.58-8-2.24-9.15,0a6.51,6.51,0,0,0,2,8.43C175.66,347.62,183.65,347.53,183.65,347.53Z"/><path class="cls-3" d="M167.85,350.59s-5,4.74,0,9.13,13.37,5.38,13.37,5.38a32.67,32.67,0,0,0-3.11-11.66c-1.16-2.38-2-3.39-3.26-3.95C171.88,348.14,168.48,350.2,167.85,350.59Z"/><path class="cls-3" d="M183.93,349.83c-1.67,1.45-1.09,4.81.09,6.91a7.14,7.14,0,0,0,3,2.81c6,3.14,10.26,1.93,10.26,1.93a9,9,0,0,0-.74-6.94c-.83-1.34-2.08-2.07-4-3.25a11.9,11.9,0,0,0-3.85-1.79C187.39,349.19,185.24,348.7,183.93,349.83Z"/><path class="cls-3" d="M157,333.27a9,9,0,0,0-4.07-.54c-.5.05-3.91.45-5.75,3-2.75,3.73-.83,10.56-.83,10.56h0a9,9,0,0,0,9.08-1.23C158.64,342.35,159.45,337.34,157,333.27Z"/><path class="cls-3" d="M167.31,317.49s-4.43,8.73.24,11.76,7.69,2.79,7.69,2.79c0-.82-.12-2-.21-3.53-.23-4-.24-4.21-.28-4.48C174.49,322.38,173.09,320,167.31,317.49Z"/><path class="cls-3" d="M141,285.44c1.86-.31,7.17-.95,11.84,1.79,1.06.62,6.38,3.73,5.3,7.4-.65,2.2-3.44,4.08-6.08,4-.58,0-2.41-.15-5.46-3.35A23.8,23.8,0,0,1,141,285.44Z"/><path class="cls-1" d="M275.79,352.28v27.24s-15.12,19.29-15.12,23.83c0,3,0,13.55,0,13.55a5.64,5.64,0,0,0,5.79,5.62c8.4.24,165.22,0,165.22,0s5.73-.52,5.71-6.13v-16.8s-1-.75-16.12-17.67c-.92-1,0-32.71,0-32.71"/><path class="cls-1" d="M306.64,383.94h85s7.67.32,16-9a85,85,0,0,0,10-13.67s10.28-13.69-5.31-26.86c-11.49-9.7-40.86-14.81-64.35-14.81s-47.5,5.62-61.29,14.81-12.26,18.64-7.92,26c2.31,3.94,10.87,14.14,10.87,14.14S297.17,384.34,306.64,383.94Z"/><path class="cls-4" d="M303.57,383.56v16.73s.38,4.21-3.41,4.43c-3.08.17-32.11,0-32.11,0s-8.25,1.11-5.61-6.15"/><path class="cls-4" d="M275.65,379.52s9.05,14.33,17.5,19.71c7.26,4.62,10.17,2.21,10.3,3.11"/><path class="cls-4" d="M393.19,383.56v16.73s-.38,4.21,3.41,4.43c3.08.17,32.11,0,32.11,0s7.47.63,8-6.37"/><path class="cls-4" d="M420.68,380.09s-8.62,13.76-17.06,19.13c-7.26,4.62-10.17,2.21-10.29,3.11"/><rect class="cls-5" x="312.6" y="389.59" width="70.5" height="2"/><rect class="cls-4" x="470.67" y="328.87" width="40" height="79.75"/><circle class="cls-4" cx="490.67" cy="418.62" r="5.46"/><path class="cls-6" d="M15.86,0C13.08,1.69,7,38.88,7.19,77.24s3.31,28.56,3,57,1,200.38,0,213S0,414.43,0,414.43s3,7.8,13.41,7.78a17.17,17.17,0,0,0,14.79-8.4l-8.94-66.25s3.83-207.84,2.94-213.74S24.56,105,24.55,78,31.81,7,31.81,7,32.08.68,24,.34Z"/></g></svg>