<svg xmlns="http://www.w3.org/2000/svg" viewBox="0 0 197 137"><defs><style>.cls-1,.cls-2{fill:none;stroke:#445265;stroke-miterlimit:10;}.cls-1{stroke-width:2px;}</style></defs><title>Complete package illustration</title><g id="Layer_5" data-name="Layer 5"><path class="cls-1" d="M60.78,80.46h85s7.67.32,16-9a85,85,0,0,0,10-13.67s10.28-13.69-5.31-26.86C155,21.21,125.64,16.1,102.15,16.1s-47.5,5.62-61.29,14.81S28.6,49.56,32.94,57C35.25,60.9,43.81,71.1,43.81,71.1S51.31,80.85,60.78,80.46Z"/><path class="cls-1" d="M29.93,48.79V76S14.81,95.32,14.81,99.86c0,3,0,13.55,0,13.55A5.64,5.64,0,0,0,20.6,119c8.4.24,165.22,0,165.22,0s5.73-.52,5.71-6.13V96.1s-1-.75-16.12-17.67c-.92-1,0-32.71,0-32.71"/><path class="cls-1" d="M57.71,80.07V96.8s.38,4.21-3.41,4.43c-3.08.17-32.11,0-32.11,0s-8.25,1.11-5.61-6.15"/><path class="cls-1" d="M29.79,76s9.05,14.33,17.5,19.71c7.26,4.62,10.17,2.21,10.3,3.11"/><path class="cls-1" d="M147.32,80.07V96.8s-.38,4.21,3.41,4.43c3.08.17,32.11,0,32.11,0s7.47.63,8-6.37"/><path class="cls-1" d="M174.81,76.6s-8.62,13.76-17.06,19.13c-7.26,4.62-10.17,2.21-10.29,3.11"/><rect class="cls-2" x="66.74" y="86.1" width="70.5" height="2"/></g></svg>